<svg xmlns="http://www.w3.org/2000/svg" xmlns:xlink="http://www.w3.org/1999/xlink" width="500" zoomAndPan="magnify" viewBox="0 0 375 374.999991" height="500" preserveAspectRatio="xMidYMid meet" version="1.0"><defs><clipPath id="4cd493adf6"><path d="M 54.222656 1.746094 L 320.472656 1.746094 L 320.472656 372.996094 L 54.222656 372.996094 Z M 54.222656 1.746094 " clip-rule="nonzero"/></clipPath><clipPath id="14ba6db8ac"><path d="M 173 148 L 187.519531 148 L 187.519531 209 L 173 209 Z M 173 148 " clip-rule="nonzero"/></clipPath><clipPath id="3dcc3eda59"><path d="M 104 220 L 131 220 L 131 231.367188 L 104 231.367188 Z M 104 220 " clip-rule="nonzero"/></clipPath><clipPath id="b7c972e0f6"><path d="M 75.019531 137 L 95 137 L 95 185 L 75.019531 185 Z M 75.019531 137 " clip-rule="nonzero"/></clipPath></defs><path fill="#011423" d="M 315.246094 297.332031 L 311.320312 293.40625 L 311.320312 81.277344 L 315.089844 77.503906 L 314.984375 39.179688 L 279.160156 3.34375 L 253.265625 3.34375 L 239.628906 16.984375 L 133.558594 16.984375 L 120.28125 3.699219 L 95.4375 3.699219 L 59.570312 39.585938 L 59.570312 77.433594 L 63.410156 81.277344 L 63.410156 293.40625 L 59.570312 297.246094 L 59.570312 335.453125 L 95.4375 371.335938 L 119.972656 371.335938 L 132.792969 358.511719 L 240.011719 358.511719 L 252.425781 370.929688 L 279.160156 370.929688 L 314.984375 335.09375 Z M 315.246094 297.332031 " fill-opacity="0.302" fill-rule="evenodd"/><g clip-path="url(#4cd493adf6)"><path fill="#10f6f4" d="M 316.3125 296.261719 L 312.828125 292.78125 L 312.828125 81.902344 L 317.488281 77.238281 L 317.488281 297.441406 L 316.753906 296.707031 Z M 316.585938 73.871094 C 316.554688 62.097656 316.519531 50.324219 316.484375 38.546875 L 279.789062 1.832031 L 252.636719 1.832031 L 239.003906 15.476562 L 134.183594 15.476562 L 120.90625 2.191406 L 94.8125 2.191406 L 58.0625 38.960938 L 58.0625 73.789062 L 54.222656 69.949219 L 54.222656 304.730469 L 58.0625 300.890625 L 58.0625 336.078125 L 94.8125 372.847656 L 120.597656 372.847656 L 133.417969 360.023438 L 239.386719 360.023438 L 251.800781 372.441406 L 279.789062 372.441406 C 292.019531 360.203125 304.257812 347.972656 316.480469 335.726562 C 316.570312 324.136719 316.644531 312.539062 316.722656 300.949219 L 320.507812 304.730469 L 320.507812 69.949219 Z M 58.0625 78.058594 L 61.898438 81.902344 L 61.898438 292.78125 L 58.0625 296.621094 L 57.238281 297.441406 L 57.238281 77.238281 Z M 310.253906 294.472656 L 313.738281 297.957031 L 313.484375 334.457031 L 278.535156 369.421875 L 253.050781 369.421875 L 240.636719 357 L 132.167969 357 L 119.347656 369.828125 L 96.0625 369.828125 L 61.078125 334.828125 L 61.078125 297.871094 L 64.917969 294.03125 L 64.917969 80.652344 L 64.476562 80.207031 L 61.078125 76.808594 L 61.078125 40.210938 L 96.0625 5.210938 L 119.65625 5.210938 L 132.933594 18.492188 L 240.253906 18.492188 L 253.890625 4.851562 L 278.535156 4.851562 L 313.480469 39.8125 L 313.585938 76.875 L 309.8125 80.652344 L 309.8125 294.03125 Z M 310.253906 294.472656 " fill-opacity="1" fill-rule="nonzero"/></g><path fill="#10f6f4" d="M 235.769531 10.335938 L 243.445312 2.652344 L 128.578125 2.652344 L 136.253906 10.335938 Z M 235.769531 10.335938 " fill-opacity="1" fill-rule="evenodd"/><path fill="#10f6f4" d="M 235.769531 363.789062 L 243.445312 371.472656 L 128.578125 371.472656 L 136.253906 363.789062 Z M 235.769531 363.789062 " fill-opacity="1" fill-rule="evenodd"/><path fill="#12f6fc" d="M 147.59375 130.734375 L 148.003906 129.613281 C 146.867188 129.203125 145.699219 128.832031 144.535156 128.503906 L 143.976562 130.5 C 144.847656 130.746094 145.71875 131.023438 146.578125 131.320312 C 147.558594 131.652344 148.53125 132.015625 149.480469 132.414062 L 149.824219 131.59375 C 149.09375 131.289062 148.347656 131.003906 147.59375 130.734375 Z M 147.59375 130.734375 " fill-opacity="1" fill-rule="nonzero"/><path fill="#12f6fc" d="M 87.953125 192.597656 C 87.886719 192.429688 87.820312 192.265625 87.753906 192.097656 C 87.636719 191.789062 87.523438 191.476562 87.410156 191.164062 C 87.34375 190.984375 87.277344 190.804688 87.214844 190.625 C 87.113281 190.324219 87.011719 190.019531 86.914062 189.714844 C 86.851562 189.523438 86.789062 189.332031 86.730469 189.140625 C 86.636719 188.84375 86.550781 188.542969 86.464844 188.246094 C 86.40625 188.046875 86.351562 187.847656 86.296875 187.648438 C 86.214844 187.351562 86.140625 187.050781 86.0625 186.753906 C 86.011719 186.550781 85.960938 186.347656 85.914062 186.144531 C 85.839844 185.84375 85.773438 185.542969 85.710938 185.242188 C 85.667969 185.039062 85.621094 184.839844 85.582031 184.636719 C 85.519531 184.328125 85.460938 184.019531 85.40625 183.710938 C 85.371094 183.515625 85.332031 183.320312 85.300781 183.125 C 85.246094 182.804688 85.199219 182.480469 85.152344 182.160156 C 85.125 181.976562 85.097656 181.789062 85.070312 181.605469 C 85.027344 181.269531 84.988281 180.933594 84.949219 180.597656 C 84.929688 180.425781 84.910156 180.25 84.890625 180.078125 C 84.855469 179.726562 84.828125 179.371094 84.800781 179.019531 C 84.789062 178.859375 84.773438 178.703125 84.765625 178.546875 C 84.738281 178.175781 84.722656 177.804688 84.707031 177.433594 C 84.699219 177.292969 84.691406 177.152344 84.6875 177.011719 C 84.675781 176.621094 84.667969 176.234375 84.664062 175.847656 C 84.664062 175.71875 84.660156 175.59375 84.660156 175.46875 C 84.660156 175.066406 84.667969 174.664062 84.679688 174.261719 C 84.679688 174.148438 84.679688 174.035156 84.683594 173.921875 C 84.699219 173.511719 84.71875 173.101562 84.742188 172.691406 C 84.75 172.585938 84.753906 172.476562 84.761719 172.371094 C 84.789062 171.960938 84.824219 171.554688 84.863281 171.148438 C 84.871094 171.035156 84.878906 170.925781 84.890625 170.8125 C 84.941406 170.316406 84.996094 169.820312 85.0625 169.324219 L 84.179688 169.207031 C 84.125 169.636719 84.078125 170.066406 84.03125 170.496094 L 82.84375 170.371094 C 81.941406 178.9375 83.347656 187.621094 86.914062 195.472656 L 88.804688 194.617188 C 88.648438 194.265625 88.496094 193.914062 88.347656 193.558594 C 88.210938 193.242188 88.082031 192.921875 87.953125 192.597656 Z M 87.953125 192.597656 " fill-opacity="1" fill-rule="nonzero"/><path fill="#12f6fc" d="M 105.378906 136.671875 L 104.886719 135.933594 C 104.636719 136.101562 104.390625 136.269531 104.140625 136.4375 L 104.652344 137.167969 C 104.890625 137 105.132812 136.835938 105.378906 136.671875 Z M 105.378906 136.671875 " fill-opacity="1" fill-rule="nonzero"/><path fill="#12f6fc" d="M 168.570312 147.140625 L 169.277344 146.605469 C 169.097656 146.367188 168.914062 146.128906 168.726562 145.894531 L 168.027344 146.445312 C 168.210938 146.675781 168.390625 146.910156 168.570312 147.140625 Z M 168.570312 147.140625 " fill-opacity="1" fill-rule="nonzero"/><path fill="#12f6fc" d="M 161.941406 210.726562 L 162.523438 211.398438 C 162.75 211.203125 162.976562 211.003906 163.199219 210.804688 L 162.605469 210.144531 C 162.386719 210.339844 162.164062 210.53125 161.941406 210.722656 Z M 161.941406 210.726562 " fill-opacity="1" fill-rule="nonzero"/><path fill="#12f6fc" d="M 177.320312 187.976562 L 178.472656 188.292969 C 178.792969 187.128906 179.074219 185.9375 179.304688 184.753906 L 177.265625 184.355469 C 177.054688 185.421875 176.804688 186.492188 176.519531 187.542969 C 176.222656 188.640625 175.886719 189.742188 175.507812 190.8125 L 176.347656 191.105469 C 176.710938 190.078125 177.03125 189.027344 177.320312 187.976562 Z M 177.320312 187.976562 " fill-opacity="1" fill-rule="nonzero"/><path fill="#12f6fc" d="M 147.101562 219.347656 C 146.121094 219.699219 145.125 220.015625 144.125 220.296875 C 144.113281 220.300781 144.101562 220.304688 144.089844 220.308594 C 143.605469 220.445312 143.117188 220.574219 142.628906 220.695312 C 142.570312 220.710938 142.507812 220.722656 142.449219 220.738281 C 142.007812 220.84375 141.566406 220.945312 141.121094 221.042969 C 141.027344 221.0625 140.929688 221.078125 140.832031 221.097656 C 140.425781 221.183594 140.015625 221.265625 139.605469 221.335938 C 139.480469 221.359375 139.355469 221.378906 139.230469 221.398438 C 138.847656 221.464844 138.464844 221.527344 138.082031 221.582031 C 137.9375 221.601562 137.789062 221.617188 137.644531 221.640625 C 137.28125 221.6875 136.914062 221.738281 136.546875 221.777344 C 136.390625 221.792969 136.230469 221.808594 136.070312 221.824219 C 135.714844 221.859375 135.359375 221.894531 135.007812 221.921875 C 134.839844 221.933594 134.667969 221.941406 134.5 221.953125 C 134.152344 221.976562 133.808594 222 133.460938 222.015625 C 133.289062 222.019531 133.113281 222.023438 132.941406 222.03125 C 132.597656 222.042969 132.253906 222.054688 131.910156 222.054688 C 131.734375 222.058594 131.5625 222.054688 131.386719 222.054688 C 131.042969 222.054688 130.699219 222.054688 130.355469 222.046875 C 130.183594 222.042969 130.011719 222.035156 129.839844 222.03125 C 129.492188 222.019531 129.144531 222.007812 128.796875 221.988281 C 128.628906 221.976562 128.460938 221.964844 128.292969 221.953125 C 127.941406 221.929688 127.59375 221.90625 127.246094 221.875 C 127.078125 221.859375 126.910156 221.839844 126.746094 221.824219 C 126.394531 221.789062 126.042969 221.753906 125.691406 221.710938 C 125.527344 221.691406 125.363281 221.664062 125.199219 221.644531 C 124.847656 221.597656 124.496094 221.546875 124.148438 221.492188 C 123.980469 221.464844 123.8125 221.4375 123.648438 221.410156 C 123.257812 221.34375 122.867188 221.277344 122.476562 221.203125 L 122.304688 222.074219 C 122.4375 222.097656 122.570312 222.121094 122.703125 222.144531 L 122.488281 223.316406 C 130.992188 224.898438 139.773438 224.195312 147.886719 221.277344 L 147.183594 219.324219 C 147.15625 219.335938 147.128906 219.34375 147.101562 219.351562 Z M 147.101562 219.347656 " fill-opacity="1" fill-rule="nonzero"/><path fill="#12f6fc" d="M 161.460938 213.804688 L 160.179688 212.167969 C 159.210938 212.921875 158.207031 213.640625 157.171875 214.320312 C 156.910156 214.488281 156.652344 214.65625 156.386719 214.824219 C 156.332031 214.859375 156.28125 214.890625 156.226562 214.925781 C 155.9375 215.105469 155.644531 215.285156 155.347656 215.460938 C 155.328125 215.472656 155.304688 215.488281 155.28125 215.5 C 154.625 215.890625 153.957031 216.261719 153.28125 216.621094 C 153.023438 216.757812 152.761719 216.894531 152.5 217.023438 L 152.902344 217.820312 C 152.902344 217.820312 152.910156 217.816406 152.910156 217.8125 L 153.449219 218.871094 C 153.71875 218.738281 153.988281 218.597656 154.257812 218.457031 C 156.792969 217.113281 159.214844 215.546875 161.460938 213.804688 Z M 161.460938 213.804688 " fill-opacity="1" fill-rule="nonzero"/><path fill="#12f6fc" d="M 166 209.792969 C 166.214844 209.578125 166.425781 209.359375 166.636719 209.144531 L 165.132812 207.707031 C 164.933594 207.917969 164.730469 208.125 164.527344 208.328125 Z M 166 209.792969 " fill-opacity="1" fill-rule="nonzero"/><path fill="#12f6fc" d="M 166.90625 145.078125 L 168.484375 143.734375 C 168.289062 143.503906 168.089844 143.273438 167.886719 143.046875 L 166.332031 144.425781 C 166.527344 144.640625 166.71875 144.859375 166.90625 145.078125 Z M 166.90625 145.078125 " fill-opacity="1" fill-rule="nonzero"/><path fill="#12f6fc" d="M 134.738281 128.003906 C 134.003906 127.953125 133.273438 127.925781 132.539062 127.90625 L 132.570312 126.710938 C 124.246094 126.503906 115.9375 128.464844 108.539062 132.378906 C 108.300781 132.503906 108.058594 132.632812 107.824219 132.765625 L 108.824219 134.582031 C 109.054688 134.457031 109.28125 134.332031 109.511719 134.210938 C 109.867188 134.019531 110.230469 133.839844 110.589844 133.660156 C 110.902344 133.507812 111.214844 133.359375 111.523438 133.214844 C 111.683594 133.136719 111.84375 133.058594 112.007812 132.988281 C 112.296875 132.855469 112.589844 132.730469 112.882812 132.605469 C 113.066406 132.523438 113.25 132.441406 113.4375 132.363281 C 113.703125 132.253906 113.972656 132.148438 114.242188 132.042969 C 114.453125 131.957031 114.664062 131.871094 114.875 131.792969 C 115.121094 131.699219 115.367188 131.613281 115.613281 131.527344 C 115.851562 131.441406 116.085938 131.351562 116.324219 131.273438 C 116.546875 131.195312 116.769531 131.128906 116.992188 131.054688 C 117.253906 130.972656 117.519531 130.882812 117.785156 130.800781 C 117.972656 130.746094 118.164062 130.691406 118.351562 130.636719 C 118.902344 130.480469 119.453125 130.328125 120.007812 130.191406 C 120.234375 130.132812 120.464844 130.070312 120.691406 130.019531 C 120.894531 129.96875 121.101562 129.929688 121.304688 129.882812 C 121.601562 129.816406 121.898438 129.75 122.195312 129.691406 C 122.371094 129.65625 122.550781 129.625 122.726562 129.589844 C 123.054688 129.527344 123.386719 129.464844 123.714844 129.410156 C 123.871094 129.386719 124.023438 129.363281 124.179688 129.339844 C 124.535156 129.285156 124.890625 129.230469 125.246094 129.183594 C 125.382812 129.164062 125.523438 129.148438 125.660156 129.132812 C 126.035156 129.085938 126.410156 129.042969 126.785156 129.003906 C 126.910156 128.992188 127.035156 128.980469 127.160156 128.972656 C 127.550781 128.9375 127.941406 128.902344 128.332031 128.875 C 128.449219 128.867188 128.566406 128.863281 128.683594 128.855469 C 129.082031 128.832031 129.476562 128.8125 129.875 128.800781 C 129.996094 128.796875 130.113281 128.796875 130.230469 128.792969 C 130.625 128.785156 131.015625 128.777344 131.410156 128.777344 C 131.542969 128.777344 131.675781 128.78125 131.808594 128.78125 C 132.765625 128.789062 133.71875 128.824219 134.675781 128.890625 Z M 134.738281 128.003906 " fill-opacity="1" fill-rule="nonzero"/><path fill="#12f6fc" d="M 102.707031 136.003906 C 102.460938 136.179688 102.214844 136.359375 101.972656 136.539062 L 103.222656 138.199219 C 103.457031 138.023438 103.691406 137.851562 103.925781 137.679688 L 102.703125 136 Z M 102.707031 136.003906 " fill-opacity="1" fill-rule="nonzero"/><path fill="#12f6fc" d="M 180.144531 172.707031 C 179.753906 165.65625 177.867188 158.890625 174.527344 152.605469 C 173.792969 151.222656 172.988281 149.867188 172.128906 148.566406 L 170.394531 149.707031 C 170.921875 150.507812 171.429688 151.335938 171.910156 152.175781 C 172.027344 152.378906 172.144531 152.582031 172.257812 152.789062 C 172.269531 152.8125 172.285156 152.835938 172.296875 152.859375 C 172.429688 153.097656 172.5625 153.335938 172.6875 153.578125 C 176.332031 160.433594 178.214844 168.136719 178.136719 175.847656 L 179.027344 175.859375 C 179.039062 174.828125 179.011719 173.800781 178.953125 172.773438 Z M 180.144531 172.707031 " fill-opacity="1" fill-rule="nonzero"/><path fill="#12f6fc" d="M 110.414062 217.089844 C 110.289062 217.027344 110.167969 216.964844 110.042969 216.902344 C 109.648438 216.699219 109.25 216.492188 108.863281 216.277344 C 108.640625 216.15625 108.421875 216.035156 108.207031 215.914062 L 107.761719 216.683594 C 107.933594 216.78125 108.109375 216.878906 108.285156 216.976562 L 107.707031 218.015625 C 108.761719 218.597656 109.855469 219.152344 110.953125 219.65625 L 111.820312 217.769531 C 111.347656 217.554688 110.878906 217.324219 110.414062 217.089844 Z M 110.414062 217.089844 " fill-opacity="1" fill-rule="nonzero"/><path fill="#12f6fc" d="M 91.527344 199.75 C 91.375 199.5 91.210938 199.226562 91.0625 198.972656 L 90.292969 199.421875 C 90.445312 199.679688 90.601562 199.945312 90.757812 200.199219 C 90.757812 200.199219 89.742188 200.816406 89.742188 200.816406 C 89.902344 201.078125 90.0625 201.332031 90.222656 201.585938 L 91.976562 200.476562 C 91.824219 200.238281 91.675781 199.996094 91.527344 199.75 Z M 91.527344 199.75 " fill-opacity="1" fill-rule="nonzero"/><path fill="#12f6fc" d="M 91.621094 152.796875 L 91.789062 152.5 L 89.617188 151.273438 L 89.449219 151.566406 C 88.726562 152.835938 88.0625 154.140625 87.457031 155.472656 L 86.964844 155.25 C 86.464844 156.34375 86 157.476562 85.582031 158.609375 L 86.101562 158.796875 C 85.683594 159.9375 85.300781 161.09375 84.96875 162.261719 L 84.875 162.589844 L 87.277344 163.269531 L 87.371094 162.941406 C 88.375 159.402344 89.804688 155.988281 91.621094 152.796875 Z M 91.621094 152.796875 " fill-opacity="1" fill-rule="nonzero"/><path fill="#12f6fc" d="M 132.417969 225.414062 L 132.394531 224.171875 C 132.640625 224.167969 132.882812 224.164062 133.128906 224.15625 L 133.167969 225.394531 C 132.917969 225.402344 132.667969 225.40625 132.417969 225.414062 Z M 127.394531 225.253906 C 126.375 225.167969 125.339844 225.054688 124.320312 224.90625 C 118.230469 224.035156 112.4375 222.09375 107.101562 219.140625 L 107.703125 218.054688 C 112.90625 220.9375 118.554688 222.832031 124.5 223.679688 C 125.492188 223.824219 126.5 223.9375 127.496094 224.015625 L 127.394531 225.25 Z M 152.589844 220.746094 L 152.0625 219.625 C 155.765625 217.902344 159.246094 215.71875 162.410156 213.132812 L 163.195312 214.089844 C 159.953125 216.742188 156.382812 218.980469 152.589844 220.75 Z M 98.863281 213.417969 C 95.683594 210.703125 92.847656 207.585938 90.433594 204.164062 L 91.449219 203.449219 C 93.800781 206.789062 96.570312 209.828125 99.667969 212.476562 Z M 170.289062 207.003906 L 169.328125 206.222656 C 173.765625 200.796875 176.921875 194.609375 178.703125 187.835938 L 179.902344 188.148438 C 178.074219 195.097656 174.839844 201.441406 170.289062 207.003906 Z M 82.421875 185.914062 C 82.371094 185.667969 82.320312 185.421875 82.269531 185.175781 L 83.488281 184.933594 C 83.535156 185.175781 83.585938 185.414062 83.636719 185.652344 Z M 180.933594 183.242188 L 179.707031 183.050781 C 179.746094 182.808594 179.78125 182.566406 179.816406 182.324219 L 181.046875 182.5 C 181.007812 182.75 180.972656 182.996094 180.933594 183.242188 Z M 81.539062 180.214844 C 81.386719 178.644531 81.308594 177.046875 81.308594 175.460938 C 81.308594 173.082031 81.484375 170.671875 81.824219 168.300781 C 82.269531 165.203125 83.003906 162.140625 84.007812 159.207031 L 85.183594 159.605469 C 84.203125 162.46875 83.488281 165.457031 83.050781 168.476562 C 82.71875 170.792969 82.550781 173.140625 82.550781 175.464844 C 82.550781 177.007812 82.625 178.566406 82.773438 180.097656 L 81.535156 180.214844 Z M 180.304688 174.207031 C 180.144531 167.214844 178.503906 160.46875 175.4375 154.160156 L 176.554688 153.621094 C 179.699219 160.089844 181.378906 167.007812 181.546875 174.179688 L 180.304688 174.210938 Z M 89.257812 150.726562 L 88.1875 150.097656 C 90.304688 146.496094 92.878906 143.164062 95.835938 140.1875 L 96.71875 141.0625 C 93.832031 143.960938 91.324219 147.210938 89.257812 150.722656 Z M 173.085938 149.875 C 172.957031 149.664062 172.828125 149.457031 172.695312 149.25 L 173.742188 148.585938 C 173.878906 148.796875 174.011719 149.011719 174.140625 149.222656 Z M 159.195312 135.242188 C 155.828125 132.921875 152.179688 131.03125 148.34375 129.625 L 148.773438 128.460938 C 152.703125 129.90625 156.449219 131.84375 159.898438 134.222656 Z M 112.90625 130.257812 L 112.4375 129.113281 C 112.667969 129.015625 112.898438 128.921875 113.132812 128.832031 L 113.589844 129.984375 C 113.359375 130.074219 113.132812 130.164062 112.90625 130.257812 Z M 118.230469 128.425781 L 117.894531 127.234375 C 122.277344 126.003906 126.8125 125.382812 131.371094 125.382812 C 133.757812 125.382812 136.171875 125.554688 138.546875 125.894531 C 138.71875 125.917969 138.886719 125.941406 139.054688 125.96875 L 138.867188 127.191406 C 138.699219 127.164062 138.535156 127.140625 138.371094 127.117188 C 136.050781 126.785156 133.699219 126.617188 131.371094 126.617188 C 126.925781 126.617188 122.503906 127.226562 118.230469 128.425781 Z M 118.230469 128.425781 " fill-opacity="1" fill-rule="nonzero"/><g clip-path="url(#14ba6db8ac)"><path fill="#12f6fc" d="M 176.695312 208.460938 L 175.066406 207.28125 L 175.058594 207.289062 C 174.976562 207.40625 174.890625 207.523438 174.800781 207.644531 L 174.652344 207.839844 L 173.292969 206.828125 L 173.441406 206.628906 C 178.195312 200.273438 181.367188 193.066406 182.871094 185.214844 C 182.902344 185.054688 182.933594 184.894531 182.960938 184.730469 L 183.007812 184.488281 L 184.09375 184.6875 C 184.273438 183.664062 184.425781 182.625 184.546875 181.601562 L 183.453125 181.476562 L 183.480469 181.230469 C 184.378906 173.3125 183.484375 165.496094 180.824219 157.996094 L 180.742188 157.761719 L 181.777344 157.398438 C 180.816406 154.722656 179.640625 152.121094 178.28125 149.660156 L 178.164062 149.445312 L 180.441406 148.191406 L 180.558594 148.410156 C 184.515625 155.574219 186.886719 163.652344 187.40625 171.777344 L 187.421875 172.023438 L 185.421875 172.152344 C 185.480469 173.179688 185.511719 174.207031 185.515625 175.203125 L 187.519531 175.207031 L 187.519531 175.457031 C 187.511719 178.941406 187.175781 182.457031 186.511719 185.910156 C 184.949219 194.070312 181.695312 201.589844 176.839844 208.261719 Z M 174.953125 206.589844 L 176.585938 207.769531 C 181.316406 201.207031 184.492188 193.820312 186.027344 185.816406 C 186.664062 182.476562 187 179.074219 187.023438 175.703125 L 185.019531 175.699219 L 185.019531 175.449219 C 185.023438 174.304688 184.988281 173.121094 184.910156 171.9375 L 184.894531 171.6875 L 186.898438 171.558594 C 186.351562 163.675781 184.054688 155.835938 180.246094 148.863281 L 178.839844 149.636719 C 180.199219 152.128906 181.375 154.757812 182.332031 157.460938 L 182.414062 157.695312 L 181.378906 158.0625 C 183.972656 165.484375 184.855469 173.210938 184.003906 181.039062 L 185.101562 181.160156 L 185.074219 181.40625 C 184.9375 182.605469 184.757812 183.820312 184.539062 185.015625 L 184.496094 185.257812 L 183.410156 185.0625 C 183.394531 185.140625 183.378906 185.222656 183.363281 185.304688 C 181.859375 193.148438 178.707031 200.351562 173.992188 206.722656 L 174.554688 207.140625 C 174.589844 207.09375 174.625 207.042969 174.660156 206.996094 L 174.957031 206.585938 Z M 174.953125 206.589844 " fill-opacity="1" fill-rule="nonzero"/></g><path fill="#12f6fc" d="M 85.683594 207.757812 L 85.539062 207.554688 C 85.363281 207.304688 85.1875 207.050781 85.015625 206.796875 L 84.875 206.59375 L 87.027344 205.136719 L 87.167969 205.339844 C 87.332031 205.582031 87.496094 205.824219 87.664062 206.066406 L 87.808594 206.265625 L 85.679688 207.757812 Z M 85.566406 206.726562 C 85.644531 206.839844 85.722656 206.953125 85.804688 207.066406 L 87.117188 206.148438 C 87.042969 206.039062 86.96875 205.933594 86.898438 205.824219 Z M 85.566406 206.726562 " fill-opacity="1" fill-rule="nonzero"/><g clip-path="url(#3dcc3eda59)"><path fill="#12f6fc" d="M 130.789062 231.367188 L 130.542969 231.363281 C 127.332031 231.308594 124.089844 230.972656 120.910156 230.367188 C 116 229.429688 111.261719 227.859375 106.816406 225.695312 L 106.59375 225.585938 L 107.476562 223.78125 C 106.664062 223.382812 105.871094 222.96875 105.121094 222.550781 L 104.902344 222.429688 L 105.726562 220.949219 L 105.945312 221.070312 C 110.808594 223.773438 116.078125 225.675781 121.601562 226.730469 C 123.867188 227.164062 126.175781 227.449219 128.460938 227.582031 L 128.710938 227.597656 L 128.644531 228.699219 C 129.304688 228.734375 129.957031 228.757812 130.585938 228.769531 L 130.832031 228.773438 Z M 107.257812 225.359375 C 111.597656 227.445312 116.21875 228.964844 120.996094 229.878906 C 124.074219 230.464844 127.199219 230.792969 130.300781 230.859375 L 130.328125 229.257812 C 129.691406 229.246094 129.035156 229.21875 128.367188 229.179688 L 128.121094 229.164062 L 128.183594 228.0625 C 125.957031 227.921875 123.710938 227.640625 121.507812 227.21875 C 116.015625 226.171875 110.769531 224.289062 105.921875 221.621094 L 105.578125 222.238281 C 106.328125 222.648438 107.113281 223.054688 107.917969 223.445312 L 108.140625 223.554688 Z M 107.257812 225.359375 " fill-opacity="1" fill-rule="nonzero"/></g><path fill="#12f6fc" d="M 163.335938 133.941406 L 163.140625 133.792969 C 158.417969 130.203125 153.152344 127.464844 147.492188 125.652344 L 147.257812 125.574219 L 147.59375 124.527344 C 146.605469 124.214844 145.597656 123.929688 144.589844 123.675781 L 144.324219 124.746094 L 144.082031 124.6875 C 143.160156 124.457031 142.214844 124.25 141.269531 124.070312 C 134.386719 122.757812 127.449219 122.816406 120.648438 124.246094 L 120.40625 124.296875 L 120.179688 123.214844 C 118.109375 123.664062 116.0625 124.234375 114.089844 124.910156 L 113.855469 124.988281 L 113.007812 122.539062 L 113.242188 122.457031 C 121.082031 119.769531 129.238281 118.863281 137.488281 119.765625 L 137.734375 119.792969 L 137.515625 121.785156 C 138.515625 121.902344 139.535156 122.046875 140.542969 122.21875 L 140.894531 120.242188 L 141.136719 120.285156 C 141.414062 120.332031 141.6875 120.382812 141.964844 120.433594 C 147.777344 121.542969 153.324219 123.535156 158.464844 126.351562 L 158.679688 126.472656 L 157.710938 128.226562 C 159.28125 129.097656 160.828125 130.0625 162.320312 131.097656 L 163.476562 129.457031 L 163.679688 129.601562 C 163.929688 129.777344 164.179688 129.957031 164.429688 130.136719 L 164.632812 130.28125 L 163.449219 131.902344 C 163.691406 132.082031 163.929688 132.261719 164.167969 132.441406 L 164.367188 132.589844 Z M 147.878906 125.257812 C 153.425781 127.058594 158.59375 129.746094 163.242188 133.246094 L 163.667969 132.6875 C 163.433594 132.511719 163.195312 132.335938 162.957031 132.160156 L 162.757812 132.015625 L 163.9375 130.394531 C 163.824219 130.3125 163.710938 130.230469 163.597656 130.152344 L 162.441406 131.789062 L 162.238281 131.648438 C 160.628906 130.519531 158.953125 129.476562 157.257812 128.542969 L 157.039062 128.425781 L 158.007812 126.667969 C 152.976562 123.9375 147.546875 122.007812 141.871094 120.921875 C 141.679688 120.886719 141.488281 120.851562 141.296875 120.816406 L 140.945312 122.792969 L 140.703125 122.75 C 139.539062 122.546875 138.363281 122.378906 137.214844 122.253906 L 136.96875 122.226562 L 137.1875 120.230469 C 129.175781 119.390625 121.253906 120.269531 113.636719 122.847656 L 114.160156 124.363281 C 116.15625 123.6875 118.226562 123.121094 120.316406 122.679688 L 120.5625 122.628906 L 120.789062 123.710938 C 127.574219 122.316406 134.492188 122.273438 141.363281 123.582031 C 142.230469 123.75 143.105469 123.9375 143.960938 124.144531 L 144.226562 123.074219 L 144.46875 123.132812 C 145.644531 123.425781 146.828125 123.757812 147.984375 124.128906 L 148.21875 124.203125 Z M 147.878906 125.257812 " fill-opacity="1" fill-rule="nonzero"/><path fill="#12f6fc" d="M 93.445312 137.832031 L 91.609375 135.996094 L 91.785156 135.824219 C 92 135.605469 92.222656 135.390625 92.441406 135.179688 L 92.617188 135.003906 L 94.425781 136.867188 L 94.246094 137.042969 C 94.035156 137.246094 93.828125 137.449219 93.617188 137.660156 L 93.441406 137.832031 Z M 92.3125 136 L 93.445312 137.132812 C 93.539062 137.042969 93.632812 136.949219 93.726562 136.859375 L 92.609375 135.707031 C 92.507812 135.804688 92.410156 135.902344 92.308594 136 Z M 92.3125 136 " fill-opacity="1" fill-rule="nonzero"/><path fill="#12f6fc" d="M 160.46875 223.277344 L 159.417969 221.566406 C 159.113281 221.75 158.808594 221.933594 158.5 222.109375 L 158.285156 222.234375 L 157.433594 220.769531 L 157.648438 220.644531 C 162.792969 217.671875 167.363281 213.886719 171.226562 209.394531 L 171.386719 209.207031 L 172.226562 209.925781 C 172.34375 209.785156 172.460938 209.652344 172.574219 209.511719 L 172.734375 209.320312 L 174.734375 210.980469 L 174.574219 211.171875 C 170.628906 215.898438 165.953125 219.929688 160.679688 223.148438 Z M 159.582031 220.886719 L 160.628906 222.59375 C 165.703125 219.46875 170.207031 215.585938 174.03125 211.042969 L 172.796875 210.015625 C 172.679688 210.15625 172.558594 210.296875 172.4375 210.433594 L 172.277344 210.621094 L 171.4375 209.902344 C 167.628906 214.296875 163.144531 218.007812 158.109375 220.949219 L 158.464844 221.558594 C 158.765625 221.378906 159.070312 221.199219 159.371094 221.015625 Z M 159.582031 220.886719 " fill-opacity="1" fill-rule="nonzero"/><path fill="#12f6fc" d="M 154.207031 226.542969 L 153.140625 224.179688 L 153.363281 224.078125 C 153.632812 223.957031 153.898438 223.835938 154.164062 223.710938 L 154.386719 223.605469 L 155.496094 225.953125 L 155.269531 226.058594 C 154.992188 226.1875 154.714844 226.316406 154.433594 226.441406 Z M 153.796875 224.425781 L 154.457031 225.886719 C 154.582031 225.832031 154.707031 225.773438 154.832031 225.714844 L 154.148438 224.261719 C 154.03125 224.316406 153.914062 224.371094 153.796875 224.425781 Z M 153.796875 224.425781 " fill-opacity="1" fill-rule="nonzero"/><path fill="#12f6fc" d="M 98.488281 134.773438 L 97.425781 133.453125 L 97.621094 133.296875 C 97.859375 133.105469 98.101562 132.917969 98.339844 132.730469 L 98.535156 132.582031 L 99.578125 133.917969 L 99.382812 134.070312 C 99.148438 134.253906 98.914062 134.433594 98.683594 134.621094 Z M 98.125 133.53125 L 98.566406 134.078125 C 98.671875 133.996094 98.777344 133.914062 98.878906 133.832031 L 98.449219 133.277344 C 98.339844 133.359375 98.234375 133.445312 98.125 133.53125 Z M 98.125 133.53125 " fill-opacity="1" fill-rule="nonzero"/><g clip-path="url(#b7c972e0f6)"><path fill="#12f6fc" d="M 76.074219 184.410156 L 76.035156 184.167969 C 75.019531 177.785156 75.128906 171.296875 76.355469 164.890625 C 76.679688 163.203125 77.082031 161.515625 77.558594 159.871094 L 77.625 159.632812 L 79.558594 160.1875 C 79.84375 159.226562 80.15625 158.25 80.503906 157.285156 L 78.609375 156.601562 L 78.695312 156.371094 C 80.789062 150.570312 83.808594 145.191406 87.679688 140.386719 L 87.835938 140.191406 L 89.402344 141.449219 C 90.554688 140.03125 91.789062 138.660156 93.085938 137.359375 L 93.261719 137.1875 L 94.464844 138.382812 L 94.289062 138.558594 C 90.089844 142.765625 86.671875 147.609375 84.128906 152.957031 L 84.023438 153.179688 L 83.023438 152.707031 C 82.585938 153.644531 82.167969 154.601562 81.78125 155.566406 L 82.808594 155.96875 L 82.71875 156.203125 C 81.527344 159.21875 80.613281 162.378906 80 165.585938 C 79.128906 170.136719 78.859375 174.757812 79.203125 179.328125 L 79.21875 179.578125 L 78.117188 179.660156 C 78.226562 181.042969 78.390625 182.421875 78.605469 183.761719 L 78.640625 184.007812 L 76.074219 184.414062 Z M 77.964844 160.246094 C 77.523438 161.800781 77.148438 163.394531 76.84375 164.984375 C 75.644531 171.253906 75.523438 177.597656 76.488281 183.84375 L 78.074219 183.59375 C 77.863281 182.234375 77.703125 180.84375 77.601562 179.449219 L 77.582031 179.199219 L 78.6875 179.117188 C 78.367188 174.585938 78.644531 170.003906 79.507812 165.492188 C 80.113281 162.335938 81.007812 159.226562 82.164062 156.25 L 81.136719 155.847656 L 81.226562 155.613281 C 81.671875 154.488281 82.160156 153.359375 82.679688 152.269531 L 82.785156 152.046875 L 83.785156 152.519531 C 86.304688 147.285156 89.660156 142.53125 93.757812 138.382812 L 93.261719 137.886719 C 91.984375 139.175781 90.761719 140.542969 89.632812 141.949219 L 89.476562 142.144531 L 87.910156 140.886719 C 84.203125 145.539062 81.289062 150.722656 79.246094 156.304688 L 81.136719 156.984375 L 81.054688 157.21875 C 80.652344 158.332031 80.285156 159.457031 79.96875 160.5625 L 79.898438 160.800781 L 77.96875 160.246094 Z M 77.964844 160.246094 " fill-opacity="1" fill-rule="nonzero"/></g><path fill="#12f6fc" d="M 168.441406 138.414062 L 168.265625 138.242188 C 168.054688 138.03125 167.84375 137.828125 167.628906 137.621094 L 167.453125 137.449219 L 168.625 136.226562 L 168.804688 136.398438 C 169.027344 136.609375 169.246094 136.824219 169.460938 137.035156 L 169.636719 137.210938 Z M 168.152344 137.4375 C 168.25 137.527344 168.34375 137.621094 168.4375 137.714844 L 168.9375 137.214844 C 168.835938 137.121094 168.738281 137.023438 168.640625 136.929688 Z M 168.152344 137.4375 " fill-opacity="1" fill-rule="nonzero"/><path fill="#12f6fc" d="M 151.988281 225.3125 L 151.335938 223.75 L 151.5625 223.652344 C 151.835938 223.539062 152.109375 223.425781 152.378906 223.304688 L 152.605469 223.207031 L 153.289062 224.757812 L 153.058594 224.859375 C 152.78125 224.980469 152.5 225.101562 152.21875 225.214844 Z M 151.984375 224.015625 L 152.253906 224.664062 C 152.378906 224.613281 152.503906 224.558594 152.632812 224.503906 L 152.347656 223.859375 C 152.226562 223.914062 152.105469 223.964844 151.984375 224.015625 Z M 151.984375 224.015625 " fill-opacity="1" fill-rule="nonzero"/><path fill="#12f6fc" d="M 85.285156 203.511719 L 85.15625 203.300781 C 85 203.039062 84.84375 202.777344 84.691406 202.515625 L 84.5625 202.300781 L 86.03125 201.449219 L 86.15625 201.664062 C 86.304688 201.917969 86.457031 202.171875 86.609375 202.421875 L 86.738281 202.636719 Z M 85.246094 202.480469 C 85.3125 202.597656 85.382812 202.714844 85.453125 202.832031 L 86.058594 202.46875 C 85.988281 202.355469 85.921875 202.242188 85.855469 202.128906 Z M 85.246094 202.480469 " fill-opacity="1" fill-rule="nonzero"/><path fill="#12f6fc" d="M 103.773438 224.09375 L 103.558594 223.972656 C 98.207031 220.917969 93.425781 217.015625 89.339844 212.375 L 89.175781 212.191406 L 90.683594 210.867188 C 89.960938 210.039062 89.261719 209.183594 88.597656 208.324219 L 88.445312 208.128906 L 89.792969 207.09375 L 89.945312 207.289062 C 93.574219 212 97.933594 216.019531 102.902344 219.242188 L 103.113281 219.378906 L 102.507812 220.304688 C 103.292969 220.808594 104.082031 221.285156 104.847656 221.722656 L 105.0625 221.847656 L 103.773438 224.097656 Z M 89.875 212.234375 C 93.835938 216.6875 98.445312 220.449219 103.589844 223.417969 L 104.386719 222.027344 C 103.613281 221.582031 102.820312 221.09375 102.03125 220.582031 L 101.824219 220.449219 L 102.425781 219.523438 C 97.566406 216.335938 93.289062 212.390625 89.703125 207.789062 L 89.144531 208.214844 C 89.804688 209.066406 90.503906 209.910156 91.222656 210.722656 L 91.386719 210.910156 L 89.878906 212.230469 Z M 89.875 212.234375 " fill-opacity="1" fill-rule="nonzero"/><path fill="#12f6fc" d="M 121.046875 219.210938 C 120.078125 218.984375 119.105469 218.71875 118.15625 218.429688 L 118.304688 217.957031 C 119.242188 218.246094 120.203125 218.503906 121.160156 218.730469 Z M 145.660156 218.125 L 145.503906 217.65625 C 146.75 217.242188 147.988281 216.769531 149.191406 216.25 L 149.390625 216.703125 C 148.175781 217.230469 146.921875 217.707031 145.660156 218.125 Z M 115.789062 217.628906 C 115.398438 217.484375 115.007812 217.332031 114.621094 217.179688 L 114.804688 216.71875 C 115.1875 216.871094 115.574219 217.023438 115.960938 217.164062 Z M 110.101562 215.066406 C 108.933594 214.441406 107.78125 213.753906 106.675781 213.027344 L 106.949219 212.613281 C 108.042969 213.332031 109.183594 214.011719 110.339844 214.632812 L 110.105469 215.066406 Z M 153.84375 214.46875 L 153.597656 214.042969 C 153.949219 213.839844 154.304688 213.628906 154.65625 213.414062 L 154.914062 213.835938 C 154.558594 214.054688 154.199219 214.265625 153.84375 214.46875 Z M 157.003906 212.480469 L 156.722656 212.074219 C 157.53125 211.515625 158.332031 210.925781 159.105469 210.316406 L 159.414062 210.703125 C 158.632812 211.320312 157.824219 211.917969 157.003906 212.480469 Z M 90.550781 194.433594 C 90.128906 193.539062 89.734375 192.613281 89.375 191.691406 L 89.835938 191.511719 C 90.191406 192.425781 90.585938 193.335938 91 194.222656 Z M 173.839844 190.773438 L 173.371094 190.605469 C 173.820312 189.375 174.21875 188.109375 174.554688 186.847656 L 175.03125 186.972656 C 174.691406 188.25 174.289062 189.53125 173.839844 190.773438 Z M 88.535156 189.347656 C 88.40625 188.953125 88.285156 188.550781 88.167969 188.15625 L 88.644531 188.015625 C 88.757812 188.40625 88.882812 188.804688 89.007812 189.191406 Z M 87.023438 183.3125 C 86.792969 182.011719 86.617188 180.683594 86.5 179.363281 L 86.996094 179.320312 C 87.109375 180.625 87.285156 181.941406 87.511719 183.226562 Z M 176.039062 182.097656 L 175.550781 182.027344 C 175.609375 181.621094 175.667969 181.210938 175.714844 180.804688 L 176.207031 180.867188 C 176.15625 181.273438 176.101562 181.6875 176.039062 182.097656 Z M 176.4375 178.386719 L 175.945312 178.355469 C 176.007812 177.378906 176.039062 176.382812 176.039062 175.402344 L 176.539062 175.402344 C 176.539062 176.394531 176.503906 177.398438 176.4375 178.386719 Z M 91.554688 155.433594 L 91.113281 155.210938 C 91.558594 154.324219 92.039062 153.441406 92.546875 152.585938 L 92.972656 152.835938 C 92.472656 153.683594 91.996094 154.558594 91.554688 155.433594 Z M 170.054688 153.109375 C 169.394531 151.976562 168.679688 150.859375 167.925781 149.792969 L 168.332031 149.503906 C 169.09375 150.585938 169.816406 151.714844 170.484375 152.859375 Z M 94.285156 150.75 L 93.875 150.472656 C 94.101562 150.132812 94.339844 149.785156 94.582031 149.445312 L 94.988281 149.730469 C 94.75 150.066406 94.511719 150.410156 94.289062 150.746094 Z M 164.867188 145.929688 C 164.59375 145.621094 164.316406 145.316406 164.035156 145.019531 L 164.398438 144.679688 C 164.679688 144.980469 164.960938 145.292969 165.238281 145.601562 Z M 98.050781 145.875 L 97.679688 145.542969 C 98.558594 144.554688 99.496094 143.589844 100.457031 142.683594 L 100.800781 143.042969 C 99.847656 143.941406 98.921875 144.894531 98.050781 145.875 Z M 162.300781 143.265625 C 161.589844 142.585938 160.847656 141.921875 160.097656 141.292969 L 160.417969 140.910156 C 161.175781 141.550781 161.925781 142.222656 162.644531 142.90625 Z M 122.402344 131.796875 L 122.300781 131.3125 C 123.277344 131.113281 124.269531 130.945312 125.253906 130.808594 L 125.320312 131.300781 C 124.347656 131.433594 123.363281 131.601562 122.402344 131.796875 Z M 137.863281 131.34375 C 136.570312 131.15625 135.25 131.027344 133.9375 130.953125 L 133.964844 130.457031 C 135.292969 130.53125 136.628906 130.664062 137.933594 130.851562 Z M 127.773438 131.03125 L 127.734375 130.539062 C 128.148438 130.503906 128.566406 130.476562 128.976562 130.457031 L 129.003906 130.949219 C 128.597656 130.972656 128.183594 131 127.773438 131.03125 Z M 127.773438 131.03125 " fill-opacity="1" fill-rule="nonzero"/></svg>